<mxfile host="65bd71144e">
    <diagram id="vJgPy-DiaIXCVgE8oir5" name="Page-1">
        <mxGraphModel dx="517" dy="495" grid="1" gridSize="10" guides="1" tooltips="1" connect="1" arrows="1" fold="1" page="1" pageScale="1" pageWidth="827" pageHeight="1169" math="0" shadow="0">
            <root>
                <mxCell id="0"/>
                <mxCell id="1" parent="0"/>
                <mxCell id="26" style="edgeStyle=none;html=1;fontSize=12;" edge="1" parent="1" source="24" target="25">
                    <mxGeometry relative="1" as="geometry"/>
                </mxCell>
                <mxCell id="24" value="start" style="strokeWidth=2;html=1;shape=mxgraph.flowchart.terminator;whiteSpace=wrap;fontSize=12;fillColor=#FFFFFF;" vertex="1" parent="1">
                    <mxGeometry x="310" y="20" width="100" height="60" as="geometry"/>
                </mxCell>
                <mxCell id="28" style="edgeStyle=none;html=1;fontSize=12;" edge="1" parent="1" source="25" target="27">
                    <mxGeometry relative="1" as="geometry"/>
                </mxCell>
                <mxCell id="25" value="user picks &lt;br&gt;pizza size" style="shape=parallelogram;html=1;strokeWidth=2;perimeter=parallelogramPerimeter;whiteSpace=wrap;rounded=1;arcSize=12;size=0.23;fontSize=12;fillColor=#FFFFFF;" vertex="1" parent="1">
                    <mxGeometry x="305" y="120" width="110" height="60" as="geometry"/>
                </mxCell>
                <mxCell id="40" style="edgeStyle=none;html=1;fontSize=12;" edge="1" parent="1" source="27" target="38">
                    <mxGeometry relative="1" as="geometry"/>
                </mxCell>
                <mxCell id="27" value="if&amp;nbsp; largePizza &lt;br&gt;== true" style="strokeWidth=2;html=1;shape=mxgraph.flowchart.decision;whiteSpace=wrap;fontSize=12;fillColor=#FFFFFF;" vertex="1" parent="1">
                    <mxGeometry x="310" y="220" width="100" height="100" as="geometry"/>
                </mxCell>
                <mxCell id="44" style="edgeStyle=none;html=1;entryX=0;entryY=0.5;entryDx=0;entryDy=0;entryPerimeter=0;fontSize=12;" edge="1" parent="1" source="32" target="42">
                    <mxGeometry relative="1" as="geometry"/>
                </mxCell>
                <mxCell id="63" style="edgeStyle=none;html=1;entryX=0.5;entryY=0;entryDx=0;entryDy=0;fontSize=12;" edge="1" parent="1" source="32" target="62">
                    <mxGeometry relative="1" as="geometry"/>
                </mxCell>
                <mxCell id="32" value="if topping1 &lt;br&gt;== true" style="strokeWidth=2;html=1;shape=mxgraph.flowchart.decision;whiteSpace=wrap;fontSize=12;fillColor=#FFFFFF;" vertex="1" parent="1">
                    <mxGeometry x="385" y="600" width="100" height="100" as="geometry"/>
                </mxCell>
                <mxCell id="37" value="true" style="text;html=1;align=center;verticalAlign=middle;resizable=0;points=[];autosize=1;strokeColor=none;fillColor=none;fontSize=12;" vertex="1" parent="1">
                    <mxGeometry x="320" y="340" width="40" height="20" as="geometry"/>
                </mxCell>
                <mxCell id="38" value="else if extraLargePizza == true" style="strokeWidth=2;html=1;shape=mxgraph.flowchart.decision;whiteSpace=wrap;fontSize=12;fillColor=#FFFFFF;" vertex="1" parent="1">
                    <mxGeometry x="460" y="220" width="100" height="100" as="geometry"/>
                </mxCell>
                <mxCell id="41" value="false" style="text;html=1;align=center;verticalAlign=middle;resizable=0;points=[];autosize=1;strokeColor=none;fillColor=none;fontSize=12;" vertex="1" parent="1">
                    <mxGeometry x="410" y="250" width="40" height="20" as="geometry"/>
                </mxCell>
                <mxCell id="45" style="edgeStyle=none;html=1;fontSize=12;" edge="1" parent="1" source="42" target="43">
                    <mxGeometry relative="1" as="geometry"/>
                </mxCell>
                <mxCell id="66" style="edgeStyle=none;html=1;entryX=0.5;entryY=0;entryDx=0;entryDy=0;fontSize=12;" edge="1" parent="1" source="42" target="64">
                    <mxGeometry relative="1" as="geometry"/>
                </mxCell>
                <mxCell id="42" value="else if topping2 == true" style="strokeWidth=2;html=1;shape=mxgraph.flowchart.decision;whiteSpace=wrap;fontSize=12;fillColor=#FFFFFF;" vertex="1" parent="1">
                    <mxGeometry x="530" y="600" width="100" height="100" as="geometry"/>
                </mxCell>
                <mxCell id="70" style="edgeStyle=none;html=1;fontSize=12;" edge="1" parent="1" source="43" target="69">
                    <mxGeometry relative="1" as="geometry"/>
                </mxCell>
                <mxCell id="43" value="else if topping 3 == true" style="strokeWidth=2;html=1;shape=mxgraph.flowchart.decision;whiteSpace=wrap;fontSize=12;fillColor=#FFFFFF;" vertex="1" parent="1">
                    <mxGeometry x="670" y="600" width="100" height="100" as="geometry"/>
                </mxCell>
                <mxCell id="49" value="" style="edgeStyle=segmentEdgeStyle;endArrow=classic;html=1;fontSize=12;exitX=0.5;exitY=1;exitDx=0;exitDy=0;exitPerimeter=0;" edge="1" parent="1" source="27">
                    <mxGeometry width="50" height="50" relative="1" as="geometry">
                        <mxPoint x="364" y="320" as="sourcePoint"/>
                        <mxPoint x="359" y="400" as="targetPoint"/>
                        <Array as="points">
                            <mxPoint x="359" y="320"/>
                            <mxPoint x="359" y="390"/>
                        </Array>
                    </mxGeometry>
                </mxCell>
                <mxCell id="50" value="" style="edgeStyle=segmentEdgeStyle;endArrow=classic;html=1;fontSize=12;exitX=0.5;exitY=1;exitDx=0;exitDy=0;exitPerimeter=0;entryX=0.5;entryY=0;entryDx=0;entryDy=0;" edge="1" parent="1" source="38" target="54">
                    <mxGeometry width="50" height="50" relative="1" as="geometry">
                        <mxPoint x="530" y="390" as="sourcePoint"/>
                        <mxPoint x="477.3499999999999" y="390" as="targetPoint"/>
                        <Array as="points"/>
                    </mxGeometry>
                </mxCell>
                <mxCell id="53" value="pizzaPrice = 6.00" style="rounded=1;whiteSpace=wrap;html=1;absoluteArcSize=1;arcSize=14;strokeWidth=2;fontSize=12;fillColor=#FFFFFF;" vertex="1" parent="1">
                    <mxGeometry x="314" y="400" width="96" height="60" as="geometry"/>
                </mxCell>
                <mxCell id="54" value="pizzaPrice = 10.00" style="rounded=1;whiteSpace=wrap;html=1;absoluteArcSize=1;arcSize=14;strokeWidth=2;fontSize=12;fillColor=#FFFFFF;" vertex="1" parent="1">
                    <mxGeometry x="462" y="400" width="96" height="60" as="geometry"/>
                </mxCell>
                <mxCell id="58" style="edgeStyle=none;html=1;fontSize=12;" edge="1" parent="1" source="55" target="32">
                    <mxGeometry relative="1" as="geometry"/>
                </mxCell>
                <mxCell id="55" value="user chooses amount of &lt;br&gt;toppings" style="shape=parallelogram;html=1;strokeWidth=2;perimeter=parallelogramPerimeter;whiteSpace=wrap;rounded=1;arcSize=12;size=0.23;fontSize=12;fillColor=#FFFFFF;" vertex="1" parent="1">
                    <mxGeometry x="380" y="500" width="110" height="60" as="geometry"/>
                </mxCell>
                <mxCell id="56" value="" style="edgeStyle=segmentEdgeStyle;endArrow=classic;html=1;fontSize=12;exitX=0.5;exitY=1;exitDx=0;exitDy=0;entryX=0;entryY=0.5;entryDx=0;entryDy=0;" edge="1" parent="1" source="53" target="55">
                    <mxGeometry width="50" height="50" relative="1" as="geometry">
                        <mxPoint x="290" y="540" as="sourcePoint"/>
                        <mxPoint x="340" y="490" as="targetPoint"/>
                        <Array as="points">
                            <mxPoint x="362" y="530"/>
                        </Array>
                    </mxGeometry>
                </mxCell>
                <mxCell id="57" value="" style="edgeStyle=segmentEdgeStyle;endArrow=classic;html=1;fontSize=12;exitX=0.5;exitY=1;exitDx=0;exitDy=0;entryX=1;entryY=0.5;entryDx=0;entryDy=0;" edge="1" parent="1" source="54" target="55">
                    <mxGeometry width="50" height="50" relative="1" as="geometry">
                        <mxPoint x="508" y="530" as="sourcePoint"/>
                        <mxPoint x="558" y="480" as="targetPoint"/>
                        <Array as="points">
                            <mxPoint x="510" y="530"/>
                        </Array>
                    </mxGeometry>
                </mxCell>
                <mxCell id="59" value="true" style="text;html=1;align=center;verticalAlign=middle;resizable=0;points=[];autosize=1;strokeColor=none;fillColor=none;fontSize=12;" vertex="1" parent="1">
                    <mxGeometry x="510" y="350" width="40" height="20" as="geometry"/>
                </mxCell>
                <mxCell id="60" value="false" style="text;html=1;align=center;verticalAlign=middle;resizable=0;points=[];autosize=1;strokeColor=none;fillColor=none;fontSize=12;" vertex="1" parent="1">
                    <mxGeometry x="485" y="620" width="40" height="20" as="geometry"/>
                </mxCell>
                <mxCell id="61" value="false" style="text;html=1;align=center;verticalAlign=middle;resizable=0;points=[];autosize=1;strokeColor=none;fillColor=none;fontSize=12;" vertex="1" parent="1">
                    <mxGeometry x="630" y="620" width="40" height="20" as="geometry"/>
                </mxCell>
                <mxCell id="62" value="toppingPrice = 1.00" style="rounded=1;whiteSpace=wrap;html=1;absoluteArcSize=1;arcSize=14;strokeWidth=2;fontSize=12;fillColor=#FFFFFF;" vertex="1" parent="1">
                    <mxGeometry x="387" y="740" width="96" height="60" as="geometry"/>
                </mxCell>
                <mxCell id="64" value="toppingPrice = 1.75" style="rounded=1;whiteSpace=wrap;html=1;absoluteArcSize=1;arcSize=14;strokeWidth=2;fontSize=12;fillColor=#FFFFFF;" vertex="1" parent="1">
                    <mxGeometry x="532" y="740" width="96" height="60" as="geometry"/>
                </mxCell>
                <mxCell id="65" value="true" style="text;html=1;align=center;verticalAlign=middle;resizable=0;points=[];autosize=1;strokeColor=none;fillColor=none;fontSize=12;" vertex="1" parent="1">
                    <mxGeometry x="387" y="700" width="40" height="20" as="geometry"/>
                </mxCell>
                <mxCell id="67" value="true" style="text;html=1;align=center;verticalAlign=middle;resizable=0;points=[];autosize=1;strokeColor=none;fillColor=none;fontSize=12;" vertex="1" parent="1">
                    <mxGeometry x="540" y="700" width="40" height="20" as="geometry"/>
                </mxCell>
                <mxCell id="69" value="toppingPrice = 2.50" style="rounded=1;whiteSpace=wrap;html=1;absoluteArcSize=1;arcSize=14;strokeWidth=2;fontSize=12;fillColor=#FFFFFF;" vertex="1" parent="1">
                    <mxGeometry x="672" y="740" width="96" height="60" as="geometry"/>
                </mxCell>
                <mxCell id="71" value="true" style="text;html=1;align=center;verticalAlign=middle;resizable=0;points=[];autosize=1;strokeColor=none;fillColor=none;fontSize=12;" vertex="1" parent="1">
                    <mxGeometry x="680" y="700" width="40" height="20" as="geometry"/>
                </mxCell>
                <mxCell id="73" value="toppingPrice = 3.35" style="rounded=1;whiteSpace=wrap;html=1;absoluteArcSize=1;arcSize=14;strokeWidth=2;fontSize=12;fillColor=#FFFFFF;" vertex="1" parent="1">
                    <mxGeometry x="810" y="740" width="96" height="60" as="geometry"/>
                </mxCell>
                <mxCell id="74" value="" style="edgeStyle=segmentEdgeStyle;endArrow=classic;html=1;fontSize=12;exitX=1;exitY=0.5;exitDx=0;exitDy=0;exitPerimeter=0;entryX=0.5;entryY=0;entryDx=0;entryDy=0;" edge="1" parent="1" source="43" target="73">
                    <mxGeometry width="50" height="50" relative="1" as="geometry">
                        <mxPoint x="800" y="700" as="sourcePoint"/>
                        <mxPoint x="850" y="650" as="targetPoint"/>
                    </mxGeometry>
                </mxCell>
                <mxCell id="75" value="false" style="text;html=1;align=center;verticalAlign=middle;resizable=0;points=[];autosize=1;strokeColor=none;fillColor=none;fontSize=12;" vertex="1" parent="1">
                    <mxGeometry x="787" y="629" width="40" height="20" as="geometry"/>
                </mxCell>
                <mxCell id="82" style="edgeStyle=none;html=1;entryX=0.5;entryY=0;entryDx=0;entryDy=0;fontSize=12;" edge="1" parent="1" source="76" target="81">
                    <mxGeometry relative="1" as="geometry"/>
                </mxCell>
                <mxCell id="76" value="tax = (pizzaPrice + toppingPrice) * 0.13;" style="rounded=1;whiteSpace=wrap;html=1;absoluteArcSize=1;arcSize=14;strokeWidth=2;fontSize=12;fillColor=#FFFFFF;" vertex="1" parent="1">
                    <mxGeometry x="602" y="860" width="96" height="60" as="geometry"/>
                </mxCell>
                <mxCell id="77" value="" style="edgeStyle=segmentEdgeStyle;endArrow=classic;html=1;fontSize=12;exitX=0.5;exitY=1;exitDx=0;exitDy=0;" edge="1" parent="1" source="62">
                    <mxGeometry width="50" height="50" relative="1" as="geometry">
                        <mxPoint x="570" y="930" as="sourcePoint"/>
                        <mxPoint x="600" y="890" as="targetPoint"/>
                        <Array as="points">
                            <mxPoint x="435" y="890"/>
                        </Array>
                    </mxGeometry>
                </mxCell>
                <mxCell id="78" value="" style="edgeStyle=segmentEdgeStyle;endArrow=classic;html=1;fontSize=12;exitX=0.5;exitY=1;exitDx=0;exitDy=0;" edge="1" parent="1" source="64">
                    <mxGeometry width="50" height="50" relative="1" as="geometry">
                        <mxPoint x="590" y="840" as="sourcePoint"/>
                        <mxPoint x="600" y="890" as="targetPoint"/>
                        <Array as="points">
                            <mxPoint x="580" y="890"/>
                        </Array>
                    </mxGeometry>
                </mxCell>
                <mxCell id="79" value="" style="edgeStyle=segmentEdgeStyle;endArrow=classic;html=1;fontSize=12;exitX=0.5;exitY=1;exitDx=0;exitDy=0;entryX=1;entryY=0.5;entryDx=0;entryDy=0;" edge="1" parent="1" source="69" target="76">
                    <mxGeometry width="50" height="50" relative="1" as="geometry">
                        <mxPoint x="730" y="880" as="sourcePoint"/>
                        <mxPoint x="780" y="830" as="targetPoint"/>
                        <Array as="points">
                            <mxPoint x="720" y="890"/>
                        </Array>
                    </mxGeometry>
                </mxCell>
                <mxCell id="80" value="" style="edgeStyle=segmentEdgeStyle;endArrow=classic;html=1;fontSize=12;exitX=0.5;exitY=1;exitDx=0;exitDy=0;" edge="1" parent="1" source="73">
                    <mxGeometry width="50" height="50" relative="1" as="geometry">
                        <mxPoint x="810" y="920" as="sourcePoint"/>
                        <mxPoint x="700" y="890" as="targetPoint"/>
                        <Array as="points">
                            <mxPoint x="858" y="890"/>
                        </Array>
                    </mxGeometry>
                </mxCell>
                <mxCell id="84" style="edgeStyle=none;html=1;fontSize=12;" edge="1" parent="1" source="81" target="83">
                    <mxGeometry relative="1" as="geometry"/>
                </mxCell>
                <mxCell id="81" value="finalPrice = tax + (pizzaPrice + toppingPrice);" style="rounded=1;whiteSpace=wrap;html=1;absoluteArcSize=1;arcSize=14;strokeWidth=2;fontSize=12;fillColor=#FFFFFF;" vertex="1" parent="1">
                    <mxGeometry x="600" y="960" width="100" height="60" as="geometry"/>
                </mxCell>
                <mxCell id="86" style="edgeStyle=none;html=1;entryX=0.5;entryY=0;entryDx=0;entryDy=0;entryPerimeter=0;fontSize=12;" edge="1" parent="1" source="83" target="85">
                    <mxGeometry relative="1" as="geometry"/>
                </mxCell>
                <mxCell id="83" value="print &quot;Your pizza &lt;br&gt;will be $&quot; + &lt;br&gt;finalPrice" style="shape=parallelogram;html=1;strokeWidth=2;perimeter=parallelogramPerimeter;whiteSpace=wrap;rounded=1;arcSize=12;size=0.23;fontSize=12;fillColor=#FFFFFF;" vertex="1" parent="1">
                    <mxGeometry x="590" y="1060" width="120" height="60" as="geometry"/>
                </mxCell>
                <mxCell id="85" value="stop" style="strokeWidth=2;html=1;shape=mxgraph.flowchart.terminator;whiteSpace=wrap;fontSize=12;fillColor=#FFFFFF;" vertex="1" parent="1">
                    <mxGeometry x="600" y="1160" width="100" height="60" as="geometry"/>
                </mxCell>
            </root>
        </mxGraphModel>
    </diagram>
</mxfile>